<?xml version="1.0" standalone="no"?>
<!DOCTYPE svg PUBLIC "-//W3C//DTD SVG 20010904//EN"
 "images/DTD/svg10.dtd">
<svg version="1.0" xmlns="http://www.w3.org/2000/svg"
 width="644.000000pt" height="644.000000pt" viewBox="0 0 644.000000 644.000000"
 preserveAspectRatio="xMidYMid meet">
<metadata>
Created by potrace 1.14, written by Peter Selinger 2001-2017
</metadata>
<g transform="translate(0.000000,644.000000) scale(0.100000,-0.100000)"
fill="#000000" stroke="none">
<path d="M2969 6436 c-2 -2 -35 -6 -72 -10 -85 -8 -115 -12 -252 -36 -136 -24
-136 -24 -215 -45 -36 -9 -69 -18 -75 -19 -126 -28 -446 -154 -610 -241 -144
-76 -179 -97 -280 -163 -277 -182 -491 -371 -726 -644 -15 -17 -30 -35 -35
-42 -101 -131 -140 -186 -189 -261 -31 -49 -65 -101 -74 -115 -42 -61 -192
-377 -238 -500 -43 -114 -79 -222 -89 -265 -1 -5 -10 -39 -19 -75 -9 -36 -18
-72 -20 -80 -2 -8 -10 -49 -18 -90 -21 -102 -28 -149 -44 -295 -10 -90 -10
-581 0 -660 4 -33 9 -78 12 -100 47 -368 187 -790 377 -1130 88 -159 242 -384
337 -495 111 -129 267 -287 381 -386 279 -244 673 -477 995 -588 44 -16 89
-32 100 -37 58 -24 333 -94 450 -113 215 -36 284 -41 560 -41 261 0 359 6 530
34 115 19 128 22 134 25 3 2 22 7 41 10 19 3 91 21 160 41 69 20 132 38 140
40 27 7 154 55 187 70 17 8 34 15 39 15 24 0 290 136 424 217 137 83 144 87
150 93 3 3 37 28 75 55 39 27 72 51 75 54 3 3 28 24 55 46 28 22 58 47 69 55
96 77 288 274 411 421 173 207 347 492 465 764 103 238 195 560 225 785 4 30
9 64 11 75 13 71 19 193 19 415 0 259 -5 351 -30 515 -3 22 -6 43 -6 47 0 4
-4 22 -9 39 -5 18 -12 50 -16 72 -11 78 -84 340 -114 412 -4 11 -25 65 -46
120 -87 228 -289 583 -443 775 -106 133 -129 158 -276 305 -173 174 -302 279
-503 412 -125 83 -388 226 -507 276 -157 65 -461 160 -580 181 -16 2 -68 12
-115 20 -47 9 -105 18 -130 21 -25 3 -58 8 -75 11 -33 6 -610 15 -616 10z"/>
</g>
</svg>
